<svg width="10" height="14" viewBox="0 0 10 14" fill="none" xmlns="http://www.w3.org/2000/svg">
<path fill-rule="evenodd" clip-rule="evenodd" d="M4.50065 14.0009C4.36804 14.0009 4.24086 13.9482 4.1471 13.8545C4.05333 13.7607 4.00065 13.6335 4.00065 13.5009L4.00065 1.70792L0.85465 4.85492C0.760764 4.9488 0.633426 5.00155 0.50065 5.00155C0.367875 5.00155 0.240537 4.9488 0.14665 4.85492C0.0527637 4.76103 1.90761e-05 4.63369 1.90735e-05 4.50092C1.90709e-05 4.36814 0.0527637 4.2408 0.14665 4.14692L4.14665 0.146915C4.1931 0.100352 4.24827 0.0634097 4.30902 0.0382032C4.36976 0.0129968 4.43488 2.19345e-05 4.50065 2.19345e-05C4.56642 2.19345e-05 4.63154 0.0129968 4.69228 0.0382032C4.75303 0.0634097 4.8082 0.100352 4.85465 0.146915L8.85465 4.14692C8.94854 4.2408 9.00128 4.36814 9.00128 4.50092C9.00128 4.63369 8.94854 4.76103 8.85465 4.85492C8.76076 4.9488 8.63343 5.00155 8.50065 5.00155C8.36787 5.00155 8.24054 4.9488 8.14665 4.85492L5.00065 1.70792L5.00065 13.5009C5.00065 13.6335 4.94797 13.7607 4.8542 13.8545C4.76044 13.9482 4.63326 14.0009 4.50065 14.0009V14.0009Z" fill="#ddd"/>
</svg>
