<svg width="36" height="36" viewBox="0 0 36 36" fill="none" xmlns="http://www.w3.org/2000/svg">
<path fill-rule="evenodd" clip-rule="evenodd" d="M18 34C26.837 34 34 26.837 34 18C34 9.163 26.837 2 18 2C9.163 2 2 9.163 2 18C2 26.837 9.163 34 18 34ZM18 36C27.941 36 36 27.941 36 18C36 8.059 27.941 0 18 0C8.059 0 0 8.059 0 18C0 27.941 8.059 36 18 36Z" fill="#FBB759"/>
<path fill-rule="evenodd" clip-rule="evenodd" d="M15.2859 15.2489C15.3929 15.6469 15.4319 16.0839 15.3019 16.4419C15.2766 16.5113 15.2363 16.5742 15.1839 16.6261C15.1314 16.678 15.0681 16.7177 14.9985 16.7422C14.929 16.7668 14.8548 16.7757 14.7814 16.7682C14.7079 16.7607 14.6371 16.737 14.5739 16.6989C14.3065 16.5304 14.0506 16.3443 13.8079 16.1419L13.6129 15.9819C13.4329 15.8359 13.2589 15.6939 13.0789 15.5589C12.5769 15.1839 12.1789 14.9859 11.8339 15.0029C11.4719 15.0209 11.0339 15.2739 10.4719 15.7179C10.3129 15.8429 10.1429 15.9849 9.96689 16.1329C9.57889 16.4569 9.15889 16.8079 8.75989 17.0639C8.68926 17.1094 8.6083 17.1364 8.5245 17.1423C8.4407 17.1482 8.35675 17.1329 8.28042 17.0979C8.20408 17.0628 8.13781 17.009 8.08773 16.9416C8.03766 16.8741 8.00538 16.7951 7.99389 16.7119C7.94389 16.3469 8.01989 15.8909 8.16289 15.4449C8.32609 14.9423 8.56011 14.4655 8.85789 14.0289C9.47789 13.1219 10.4839 12.2669 11.8309 12.3229C13.1309 12.3779 14.0949 13.1399 14.6749 13.9699C14.9669 14.3859 15.1729 14.8329 15.2849 15.2489H15.2859Z" fill="#FBB759"/>
<path fill-rule="evenodd" clip-rule="evenodd" d="M20.6302 15.2489C20.5222 15.6469 20.4832 16.0839 20.6132 16.4419C20.6385 16.5114 20.6788 16.5744 20.7313 16.6265C20.7838 16.6785 20.8472 16.7182 20.9169 16.7428C20.9867 16.7674 21.061 16.7762 21.1345 16.7686C21.208 16.761 21.279 16.7372 21.3422 16.6989C21.6042 16.5409 21.8632 16.3389 22.1072 16.1419L22.3032 15.9819C22.4832 15.8359 22.6572 15.6939 22.8372 15.5589C23.3382 15.1839 23.7372 14.9859 24.0812 15.0029C24.4442 15.0209 24.8812 15.2739 25.4442 15.7179C25.6022 15.8429 25.7722 15.9849 25.9492 16.1329C26.3362 16.4569 26.7562 16.8079 27.1562 17.0639C27.2268 17.1092 27.3077 17.1359 27.3914 17.1417C27.475 17.1476 27.5588 17.1322 27.635 17.0972C27.7112 17.0621 27.7773 17.0085 27.8274 16.9411C27.8774 16.8738 27.9096 16.795 27.9212 16.7119C27.9712 16.3469 27.8952 15.8909 27.7532 15.4449C27.59 14.9423 27.356 14.4655 27.0582 14.0289C26.4382 13.1219 25.4312 12.2669 24.0842 12.3229C22.7842 12.3779 21.8212 13.1399 21.2402 13.9699C20.9654 14.3583 20.7591 14.7909 20.6302 15.2489V15.2489Z" fill="#FBB759"/>
<path fill-rule="evenodd" clip-rule="evenodd" d="M18 31C13.962 31 10.462 27.952 8.74196 23.5C8.72513 23.4571 8.70846 23.4141 8.69196 23.371C8.24596 22.18 9.19996 21 10.473 21H25.528C26.801 21 27.756 22.18 27.308 23.371C27.2918 23.4141 27.2755 23.4571 27.259 23.5C25.538 27.952 22.038 31 18 31ZM25.276 23.072C24.976 23.8 24.627 24.468 24.241 25.072H11.759C11.4105 24.525 11.1052 23.9516 10.846 23.357V23.072H25.276Z" fill="#FBB759"/>
<path fill-rule="evenodd" clip-rule="evenodd" d="M25.272 27.072C25.499 26.777 25.716 26.469 25.922 26.149C26.4811 25.2749 26.9454 24.3436 27.307 23.371C27.69 22.354 27.049 21.344 26.06 21.071C25.8864 21.0235 25.7071 20.9996 25.527 21H10.473C10.2929 20.9999 10.1136 21.0241 9.94002 21.072C9.48946 21.1935 9.09979 21.4774 8.84602 21.869C8.70375 22.0895 8.61572 22.3406 8.58912 22.6016C8.56253 22.8627 8.59813 23.1263 8.69302 23.371C8.79409 23.6368 8.90145 23.9003 9.01502 24.161C9.32502 24.866 9.68102 25.531 10.078 26.149C10.284 26.469 10.501 26.777 10.728 27.071C12.602 29.502 15.168 31 18 31C20.831 31 23.398 29.502 25.272 27.072ZM25.276 23.072C24.9906 23.7678 24.6442 24.4371 24.241 25.072H11.759C11.4105 24.525 11.1052 23.9516 10.846 23.357V23.072H25.276Z" fill="#FBB759"/>
</svg>
