<svg width="496" height="496" viewBox="0 0 496 496" fill="none" xmlns="http://www.w3.org/2000/svg">
<path d="M248 0C111 0 0 111 0 248C0 385 111 496 248 496C385 496 496 385 496 248C496 111 385 0 248 0ZM248 448C137.7 448 48 358.3 48 248C48 137.7 137.7 48 248 48C358.3 48 448 137.7 448 248C448 358.3 358.3 448 248 448ZM256 296C242.8 296 232 306.8 232 320C232 333.2 242.8 344 256 344C279.8 344 302.3 354.5 317.6 372.8C325.7 382.6 340.8 384.7 351.4 375.9C361.6 367.4 363 352.3 354.5 342.1C330 312.8 294.1 296 256 296ZM168 232C185.7 232 200 217.7 200 200C200 182.3 185.7 168 168 168C150.3 168 136 182.3 136 200C136 217.7 150.3 232 168 232ZM328 168C310.3 168 296 182.3 296 200C296 217.7 310.3 232 328 232C345.7 232 360 217.7 360 200C360 182.3 345.7 168 328 168ZM162.4 266.8C151 282.1 126 317.4 126 334.9C126 357.6 144.8 376 168 376C191.2 376 210 357.6 210 334.9C210 317.4 185 282.1 173.6 266.8C170.8 263.1 165.2 263.1 162.4 266.8V266.8Z" fill="#FFC700"/>
</svg>
