<svg width="496" height="496" viewBox="0 0 496 496" fill="none" xmlns="http://www.w3.org/2000/svg">
<path d="M248 0C111 0 0 111 0 248C0 385 111 496 248 496C385 496 496 385 496 248C496 111 385 0 248 0ZM248 448C137.7 448 48 358.3 48 248C48 137.7 137.7 48 248 48C358.3 48 448 137.7 448 248C448 358.3 358.3 448 248 448ZM377.1 144.2C373.3 139.8 366.8 138.8 361.8 141.7L281.8 189.7C278.2 191.9 276 195.8 276 200C276 204.2 278.2 208.1 281.8 210.3L361.8 258.3C367.2 261.5 373.6 259.9 377.1 255.8C380.9 251.3 381 244.8 377.2 240.3L343.6 200L377.2 159.7C381 155.2 380.9 148.6 377.1 144.2ZM220 200C220 195.8 217.8 191.9 214.2 189.7L134.2 141.7C129.2 138.7 122.7 139.8 118.9 144.2C115.1 148.7 115 155.2 118.8 159.7L152.4 200L118.8 240.3C115 244.8 115.1 251.3 118.9 255.8C122.4 259.9 128.8 261.5 134.2 258.3L214.2 210.3C217.8 208.1 220 204.2 220 200V200ZM248 264C202.6 264 147.1 302.3 140.2 357.3C138.7 369.1 147.1 378.9 155.7 375.2C178.4 365.5 212 360 248 360C284 360 317.6 365.5 340.3 375.2C348.8 378.9 357.3 369.2 355.8 357.3C348.9 302.3 293.4 264 248 264Z" fill="#FFC700"/>
</svg>
